<svg width="28" height="28" viewBox="0 0 28 28" fill="none" xmlns="http://www.w3.org/2000/svg">
<g clip-path="url(#clip0_24_96)">
<path d="M0.0722961 6.14007C0.198515 5.50427 0.480431 4.92245 0.874126 4.4418C0.957142 4.33707 1.04387 4.24329 1.13788 4.1495C1.83542 3.44851 2.81444 3.01123 3.88396 3.01123L24.116 3.01123C25.1856 3.01123 26.1611 3.44851 26.8619 4.1495C26.9557 4.24329 27.0424 4.33707 27.1257 4.4418C27.5196 4.92239 27.8015 5.50427 27.9242 6.14007C27.9746 6.38545 28 6.63903 28 6.89541L28 21.105C28 21.6502 27.8844 22.1742 27.6782 22.6474C27.487 23.0991 27.205 23.5078 26.862 23.8506C26.775 23.9373 26.6886 24.017 26.5944 24.0963C25.9225 24.6528 25.0552 24.9888 24.116 24.9888L3.88396 24.9888C2.94443 24.9888 2.07337 24.6528 1.40536 24.0928C1.31141 24.017 1.22462 23.9373 1.13788 23.8506C0.794992 23.5078 0.513077 23.0991 0.317898 22.6474V22.6439C0.11178 22.1707 5.53131e-05 21.6502 5.53131e-05 21.1051L5.53131e-05 6.89541C0 6.63903 0.024992 6.38545 0.0722961 6.14007ZM25.4565 5.55469C25.1095 5.20808 24.6436 4.99825 24.116 4.99825L3.88396 4.99825C3.35645 4.99825 2.88635 5.20808 2.54346 5.55469C2.4821 5.61643 2.4243 5.68523 2.37327 5.75359L12.9776 14.9955C13.27 15.2518 13.6313 15.3784 14 15.3784C14.365 15.3784 14.726 15.2518 15.0224 14.9955L25.6226 5.74965C25.5757 5.68129 25.5179 5.61643 25.4565 5.55469ZM26.013 21.105L26.013 7.80585L18.339 14.5004L26.0091 21.1879C26.013 21.1625 26.013 21.134 26.013 21.105ZM3.88396 23.0014L24.116 23.0014C24.4595 23.0014 24.7809 22.9111 25.0552 22.7525L16.9627 15.7L16.2072 16.3573C15.5749 16.9067 14.7838 17.1849 14 17.1849C13.2122 17.1849 12.4211 16.9067 11.7889 16.3573L11.0338 15.7L2.94437 22.7525C3.21907 22.9111 3.54047 23.0014 3.88396 23.0014ZM1.98702 21.105C1.98702 21.134 1.98702 21.1625 1.99073 21.1879L9.66076 14.5043L1.98702 7.8094L1.98702 21.105Z" fill="#4A8251"/>
</g>
<defs>
<clipPath id="clip0_24_96">
<rect width="28" height="28" fill="white" transform="matrix(-1 0 0 1 28 0)"/>
</clipPath>
</defs>
</svg>
