<svg width="28" height="28" viewBox="0 0 28 28" fill="none" xmlns="http://www.w3.org/2000/svg">
<path fill-rule="evenodd" clip-rule="evenodd" d="M14 21C17.866 21 21 17.866 21 14C21 10.134 17.866 7 14 7C10.134 7 7 10.134 7 14C7 17.866 10.134 21 14 21ZM14 18.6667C16.5773 18.6667 18.6667 16.5773 18.6667 14C18.6667 11.4227 16.5773 9.33333 14 9.33333C11.4227 9.33333 9.33333 11.4227 9.33333 14C9.33333 16.5773 11.4227 18.6667 14 18.6667Z" fill="#4A8251"/>
<path d="M20.9999 5.83337C20.3556 5.83337 19.8333 6.35571 19.8333 7.00004C19.8333 7.64437 20.3556 8.16671 20.9999 8.16671C21.6443 8.16671 22.1666 7.64437 22.1666 7.00004C22.1666 6.35571 21.6443 5.83337 20.9999 5.83337Z" fill="#4A8251"/>
<path fill-rule="evenodd" clip-rule="evenodd" d="M1.9297 4.9887C1.16675 6.48608 1.16675 8.44626 1.16675 12.3666V15.6333C1.16675 19.5536 1.16675 21.5139 1.9297 23.0112C2.60081 24.3283 3.67167 25.3992 4.98882 26.0703C6.4862 26.8333 8.44639 26.8333 12.3667 26.8333H15.6334C19.5538 26.8333 21.514 26.8333 23.0113 26.0703C24.3285 25.3992 25.3993 24.3283 26.0704 23.0112C26.8334 21.5139 26.8334 19.5536 26.8334 15.6333V12.3666C26.8334 8.44626 26.8334 6.48608 26.0704 4.9887C25.3993 3.67155 24.3285 2.60069 23.0113 1.92958C21.514 1.16663 19.5538 1.16663 15.6334 1.16663H12.3667C8.44639 1.16663 6.4862 1.16663 4.98882 1.92958C3.67167 2.60069 2.60081 3.67155 1.9297 4.9887ZM15.6334 3.49996H12.3667C10.3681 3.49996 9.00937 3.50178 7.95917 3.58758C6.93619 3.67116 6.41306 3.82265 6.04813 4.00859C5.17004 4.45601 4.45613 5.16991 4.00871 6.04801C3.82277 6.41294 3.67128 6.93607 3.5877 7.95905C3.5019 9.00925 3.50008 10.3679 3.50008 12.3666V15.6333C3.50008 17.632 3.5019 18.9906 3.5877 20.0408C3.67128 21.0639 3.82277 21.587 4.00871 21.952C4.45613 22.83 5.17004 23.5439 6.04813 23.9913C6.41306 24.1773 6.93619 24.3288 7.95917 24.4123C9.00937 24.4981 10.3681 24.5 12.3667 24.5H15.6334C17.6321 24.5 18.9907 24.4981 20.041 24.4123C21.064 24.3288 21.5871 24.1773 21.9521 23.9913C22.8301 23.5439 23.544 22.83 23.9914 21.952C24.1774 21.587 24.3289 21.0639 24.4125 20.0408C24.4982 18.9906 24.5001 17.632 24.5001 15.6333V12.3666C24.5001 10.3679 24.4982 9.00925 24.4125 7.95905C24.3289 6.93607 24.1774 6.41294 23.9914 6.04801C23.544 5.16991 22.8301 4.45601 21.9521 4.00859C21.5871 3.82265 21.064 3.67116 20.041 3.58758C18.9907 3.50178 17.6321 3.49996 15.6334 3.49996Z" fill="#4A8251"/>
</svg>
