<svg width="374" height="539" viewBox="0 0 374 539" fill="none" xmlns="http://www.w3.org/2000/svg">
<path d="M87.8 538.8C72.6 538.8 56.8 535.4 40.4 528.6C24.4 522.2 13 511.8 6.2 497.4C3.4 492.2 1.6 486.6 0.8 480.6C0.400001 475 0.200001 469.4 0.200001 463.8V457.2C0.200001 454 0.600001 451 1.4 448.2C2.2 445.8 4.2 444.6 7.4 444.6C8.2 444.6 8.6 445 8.6 445.8C8.6 448.2 8.4 450.6 8 453C7.6 455.4 7.4 458 7.4 460.8C7.4 479.2 13.2 493.2 24.8 502.8C36.8 512.4 51.6 517.2 69.2 517.2C94.4 517.2 117.6 511 138.8 498.6C160 486.2 179.2 469.2 196.4 447.6C213.2 426.8 226.8 406.4 237.2 386.4C248 366.8 257.4 346.8 265.4 326.4C273.4 306 281.6 285 290 263.4C279.6 279 265.2 293.4 246.8 306.6C228.4 319.4 208.4 329.6 186.8 337.2C165.6 345.2 145 349.2 125 349.2C103.8 349.2 83.8 345.4 65 337.8C46.6 330.6 31.8 319.6 20.6 304.8C9.4 290 3.8 271.4 3.8 249C3.8 223 8.8 197.6 18.8 172.8C28.8 148 42.2 125 59 103.8C75.8 82.2 94.6 63.6 115.4 48C133.8 34 155 22.6 179 13.8C203.4 4.99999 227.6 0.599985 251.6 0.599985C261.6 0.599985 271 1.39999 279.8 2.99999C288.6 4.19997 297.6 6.99997 306.8 11.4C314.8 15 321.2 19.6 326 25.2C330.8 30.4 333.2 36.4 333.2 43.2C333.2 44 333.2 45 333.2 46.2C333.2 47.4 333 48.4 332.6 49.2C331 55.6 327.2 63 321.2 71.4C315.6 79.4 311.2 87.8 308 96.6C307.6 98.2 305.4 99.6 301.4 100.8C297.4 101.6 295.8 101.2 296.6 99.6C299.8 94.4 302.2 88 303.8 80.4C305.8 72.8 306.8 65.2 306.8 57.6C306.8 52 306.2 46.8 305 42C304.2 36.8 302.6 32.4 300.2 28.8C296.2 21.6 290 16.6 281.6 13.8C273.2 11 264.2 9.59998 254.6 9.59998C245.4 9.59998 236.2 10.6 227 12.6C217.8 14.6 209.8 16.8 203 19.2C179.8 27.6 157.6 40.8 136.4 58.8C117.6 75.2 100.8 94.2 86 115.8C71.6 137.4 60.2 159.6 51.8 182.4C43.4 205.2 39.2 227 39.2 247.8C39.2 269 43.2 286.2 51.2 299.4C59.6 312.6 70.6 322.4 84.2 328.8C97.8 334.8 112.4 337.8 128 337.8C160.4 337.8 188.8 330.4 213.2 315.6C238 300.4 259 280.6 276.2 256.2C293.4 231.8 306.6 205.6 315.8 177.6H254C249.2 177.6 242.6 178 234.2 178.8C225.8 179.2 217.2 180.6 208.4 183C199.6 185 192.2 188.4 186.2 193.2C180.2 198 177.2 204.6 177.2 213C177.2 215.8 177.6 218.8 178.4 222C179.2 224.8 179.8 227 180.2 228.6L174.8 232.2C172 227 168.6 221.6 164.6 216C161 210 159 205.2 158.6 201.6C158.2 198.4 158.4 194.2 159.2 189C160 183.8 162.6 179.2 167 175.2C171.8 170.8 178.6 168 187.4 166.8C196.6 165.2 206 164.4 215.6 164.4C224.4 164.4 232.8 164.8 240.8 165.6C248.8 166 255.2 166.2 260 166.2H374L367.4 173.4C361.8 173.4 355.6 174.4 348.8 176.4C342 178 336.4 181.6 332 187.2C323.2 198.4 316.4 211 311.6 225C307.2 239 302.6 253.8 297.8 269.4C289.8 297.8 282 325.6 274.4 352.8C266.8 380.4 256.6 406.4 243.8 430.8C231.4 455.6 213.2 478.4 189.2 499.2C176.4 510 160.4 519.2 141.2 526.8C122 534.8 104.2 538.8 87.8 538.8Z" fill="#4A8251" fill-opacity="0.15"/>
</svg>
