<svg width="452" height="353" viewBox="0 0 452 353" fill="none" xmlns="http://www.w3.org/2000/svg">
<path d="M65.6 352.8C53.2 352.8 41.4 349.2 30.2 342C19 335.2 10.6 324.6 5 310.2C3 305 1.6 299.4 0.8 293.4C0.400001 287.4 0.200001 281.6 0.200001 276V268.2C0.200001 265.4 0.400001 262.8 0.8 260.4C1.6 258 3.2 256.8 5.6 256.8C6.4 256.8 6.8 257.2 6.8 258C6.8 260.4 6.6 262.8 6.2 265.2C6.2 267.6 6.2 270 6.2 272.4C6.2 291.2 10.8 305.6 20 315.6C29.6 325.2 41.4 330 55.4 330C69.4 330 83 326 96.2 318C109.4 309.6 121.6 299.2 132.8 286.8C139.2 280 146.4 269.8 154.4 256.2C162.8 242.2 171.4 226.6 180.2 209.4C189.4 191.8 198.6 173.8 207.8 155.4C217 136.6 225.8 118.6 234.2 101.4C242.6 83.8 250.2 68.4 257 55.2C263.4 42.8 272 33 282.8 25.8C293.6 18.6 302.8 13.6 310.4 10.8C307.6 10.8 301.6 11 292.4 11.4C283.6 11.8 274.2 12.2 264.2 12.6C254.2 13 246.2 13.4 240.2 13.8C225 14.6 209.6 16.4 194 19.2C178.4 22 164.6 25.8 152.6 30.6C140.6 35.4 132 41.6 126.8 49.2C123.2 54.4 121.4 60.4 121.4 67.2C121.4 80.8 127.4 90.6 139.4 96.6C140.2 97.4 140.6 97.8 140.6 97.8C140.6 99 139.6 100.2 137.6 101.4C135.6 102.2 133.6 102.4 131.6 102C128.4 100 124.4 96.8 119.6 92.4C115.2 87.6 111 82.6 107 77.4C103.4 72.2 101 67.8 99.8 64.2C97.8 58.2 96.8 53.4 96.8 49.8C96.8 40.2 100.4 32.4 107.6 26.4C114.8 20 124.2 15.2 135.8 12C147.4 8.39998 159.8 5.99998 173 4.79997C186.2 3.19999 199 2.19999 211.4 1.79997C223.8 1.39997 234.4 1.19998 243.2 1.19998C263.6 1.19998 281.8 1.19998 297.8 1.19998C314.2 0.799983 329.2 0.599985 342.8 0.599985C356.8 0.599985 370.2 0.799983 383 1.19998C396.2 1.59997 410 2.19998 424.4 2.99999C434.8 3.39998 441.8 5.39998 445.4 8.99998C449.4 12.6 451.4 17 451.4 22.2C451.4 29 449.2 36.4 444.8 44.4C440.4 52.4 436.4 59.8 432.8 66.6C431.2 69.8 428.6 72.2 425 73.8C421.4 75 420 73.8 420.8 70.2C421.6 66.6 422.4 62.8 423.2 58.8C424 54.4 424.4 50.2 424.4 46.2C424.4 39 423 32.6 420.2 27C417.4 21 412.6 16.8 405.8 14.4C401.8 12.8 397 11.8 391.4 11.4C385.8 10.6 379.8 10.2 373.4 10.2C361.4 10.2 349.4 11.4 337.4 13.8C325.4 16.2 316 20 309.2 25.2C300.8 31.6 292.2 42 283.4 56.4C275 70.8 267 86.2 259.4 102.6C251.8 119 245 133.4 239 145.8C238.6 146.6 238.4 147.8 238.4 149.4C238.4 151.4 240.2 152.4 243.8 152.4C249.4 152.4 257.2 152.4 267.2 152.4C277.6 152.4 288.4 152.6 299.6 153C310.8 153 320.4 153 328.4 153C337.2 153 344.2 153.6 349.4 154.8C354.6 155.6 357.2 158.2 357.2 162.6C357.2 164.2 356.2 167.4 354.2 172.2C351.4 178.6 348.2 184.2 344.6 189C341.4 193.4 338.8 198 336.8 202.8C336.4 204.4 334.6 205.8 331.4 207C328.2 208.2 327 208 327.8 206.4C329.4 202.8 331 198.4 332.6 193.2C334.6 187.6 335.6 182.8 335.6 178.8C335.6 172.4 332.8 169.2 327.2 169.2H233.6C230 169.2 227.2 170.8 225.2 174C213.6 197.2 201 222 187.4 248.4C174.2 274.8 158.8 297.4 141.2 316.2C131.2 327 119.6 335.8 106.4 342.6C93.2 349.4 79.6 352.8 65.6 352.8Z" fill="#4A8251" fill-opacity="0.15"/>
</svg>
