<svg width="28" height="28" viewBox="0 0 28 28" fill="none" xmlns="http://www.w3.org/2000/svg">
<g clip-path="url(#clip0_24_90)">
<path fill-rule="evenodd" clip-rule="evenodd" d="M23.8762 4.06902C21.2558 1.44648 17.771 0.00147403 14.0583 0C6.40831 0 0.182179 6.22375 0.179117 13.8738C0.178097 16.3191 0.817223 18.7061 2.03171 20.8102L0.0627441 28L7.42029 26.0706C9.44743 27.1759 11.7298 27.7584 14.0527 27.7594H14.0584C21.7076 27.7594 27.9343 21.5349 27.9374 13.8848C27.9389 10.1775 26.4966 6.69155 23.8762 4.06902ZM14.0584 25.4161H14.0537C11.9838 25.4153 9.95351 24.8594 8.1824 23.8086L7.76113 23.5587L3.39512 24.7036L4.56051 20.4481L4.28619 20.0119C3.13146 18.1758 2.52155 16.0536 2.52245 13.8746C2.52499 7.51625 7.69994 2.34334 14.063 2.34334C17.1442 2.34451 20.0406 3.54562 22.2185 5.72538C24.3965 7.90513 25.5953 10.8026 25.5941 13.8839C25.5915 20.2428 20.4166 25.4161 14.0584 25.4161ZM20.386 16.7792C20.0392 16.6057 18.3342 15.767 18.0163 15.6513C17.6985 15.5356 17.4673 15.4777 17.2361 15.8248C17.0049 16.1719 16.3403 16.9528 16.138 17.1841C15.9357 17.4155 15.7334 17.4444 15.3866 17.2709C15.0398 17.0974 13.9224 16.7313 12.5978 15.5502C11.5669 14.631 10.8709 13.4956 10.6686 13.1486C10.4663 12.8015 10.6471 12.6138 10.8207 12.441C10.9767 12.2857 11.1675 12.0361 11.3409 11.8337C11.5143 11.6312 11.572 11.4866 11.6876 11.2553C11.8032 11.0239 11.7454 10.8214 11.6587 10.6479C11.572 10.4744 10.8785 8.76797 10.5895 8.07385C10.308 7.39784 10.0221 7.4893 9.80925 7.47872C9.60719 7.46867 9.37577 7.46651 9.14461 7.46651C8.91341 7.46651 8.53772 7.55329 8.21982 7.90033C7.90196 8.24741 7.00613 9.08614 7.00613 10.7925C7.00613 12.4989 8.24874 14.1474 8.42214 14.3788C8.59551 14.6101 10.8675 18.1119 14.3463 19.6135C15.1737 19.9707 15.8196 20.184 16.3233 20.3439C17.1541 20.6076 17.91 20.5704 18.5076 20.4812C19.1739 20.3817 20.5593 19.6425 20.8484 18.8327C21.1374 18.0229 21.1374 17.3287 21.0506 17.1841C20.964 17.0395 20.7328 16.9528 20.386 16.7792Z" fill="#4A8251"/>
</g>
<defs>
<clipPath id="clip0_24_90">
<rect width="28" height="28" fill="white"/>
</clipPath>
</defs>
</svg>
